<?xml version="1.0" encoding="UTF-8" standalone="no"?>
<svg
   width="51"
   height="51"
   viewBox="0 0 51 51"
   fill="none"
   version="1.1"
   id="svg39"
   sodipodi:docname="PetHappyMinimalLogo.svg"
   inkscape:version="1.1 (c4e8f9e, 2021-05-24)"
   xmlns:inkscape="http://www.inkscape.org/namespaces/inkscape"
   xmlns:sodipodi="http://sodipodi.sourceforge.net/DTD/sodipodi-0.dtd"
   xmlns:xlink="http://www.w3.org/1999/xlink"
   xmlns="http://www.w3.org/2000/svg"
   xmlns:svg="http://www.w3.org/2000/svg">
  <sodipodi:namedview
     id="namedview41"
     pagecolor="#000000"
     bordercolor="#cccccc"
     borderopacity="1"
     inkscape:pageshadow="0"
     inkscape:pageopacity="1"
     inkscape:pagecheckerboard="0"
     showgrid="false"
     inkscape:zoom="4.3812891"
     inkscape:cx="19.17244"
     inkscape:cy="37.203662"
     inkscape:window-width="1440"
     inkscape:window-height="860"
     inkscape:window-x="0"
     inkscape:window-y="0"
     inkscape:window-maximized="1"
     inkscape:current-layer="svg39" />
  <path
     d="M36.5028 0.407586C34.9285 0.283016 33.4283 1.32711 32.1877 3.24945C30.9823 5.11669 30.1135 7.70484 29.8283 10.653C29.5431 13.6011 29.9017 16.2862 30.7302 18.3143C31.5831 20.4023 32.8594 21.6662 34.4336 21.7908C36.008 21.9154 37.5085 20.8712 38.7494 18.9489C39.9547 17.0817 40.8229 14.4935 41.1082 11.5454C41.3935 8.59725 41.0345 5.91211 40.2062 3.88406C39.3532 1.79616 38.0772 0.532159 36.5028 0.407586V0.407586ZM36.3415 2.07601C36.8246 2.11424 37.7437 2.68818 38.4693 4.46443C39.1708 6.18213 39.5281 8.66489 39.2635 11.3995C38.3236 22.2939 30.898 20.5362 31.673 10.7989C31.9375 8.06426 32.766 5.67472 33.7868 4.09347C34.8421 2.45828 35.8584 2.03779 36.3415 2.07601V2.07601Z"
     fill="url(#paint0_linear_106_59)"
     id="path2"
     style="fill-opacity:1;fill:url(#linearGradient2106)" />
  <path
     d="M16.1456 0.407586C14.5713 0.532162 13.2945 1.79612 12.4416 3.88406C11.6131 5.91222 11.2545 8.59732 11.5397 11.5454C11.8248 14.4936 12.6938 17.0817 13.8991 18.9489C15.1399 20.8712 16.6392 21.9154 18.2136 21.7908C19.7879 21.6662 21.0647 20.4023 21.9176 18.3143C22.7461 16.2862 23.1047 13.6011 22.8195 10.653C22.5344 7.70483 21.6654 5.11666 20.4601 3.24945C19.2192 1.32719 17.72 0.28301 16.1456 0.407586V0.407586ZM20.9748 10.7989C21.2394 13.5336 20.8824 16.0164 20.1807 17.734C19.4551 19.5102 18.5352 20.0842 18.0522 20.1224C17.5692 20.1606 16.5531 19.7402 15.4976 18.1049C14.4768 16.5237 13.6489 14.1341 13.3843 11.3995C12.219 0.523056 19.8688 1.08807 20.9748 10.7989V10.7989Z"
     fill="url(#paint1_linear_106_59)"
     id="path4"
     style="fill-opacity:1;fill:url(#linearGradient2108)" />
  <path
     d="M3.54537 17.8459C2.36524 18.0341 1.54776 19.0457 1.0724 20.7149C0.617666 22.3117 0.560857 24.3699 0.995853 26.6011C1.43085 28.8324 2.26288 30.7487 3.29405 32.1083C4.37197 33.5298 5.52212 34.2277 6.70213 34.0398H6.70278C7.88259 33.8514 8.69972 32.84 9.17512 31.1709C9.62986 29.5741 9.68666 27.5159 9.25166 25.2846C8.81666 23.0533 7.98525 21.1367 6.9541 19.7768C5.87617 18.3553 4.72546 17.6577 3.54539 17.8459H3.54537ZM7.42865 25.5754C7.82401 27.6033 7.74752 29.47 7.38208 30.7532C6.99704 32.1051 6.40394 32.3866 6.38129 32.3904C6.35934 32.3939 5.69392 32.3135 4.82045 31.1616V31.161C3.99186 30.0685 3.21485 28.3384 2.81949 26.3104C1.0061 18.7482 6.01985 18.9383 7.42865 25.5754V25.5754Z"
     fill="url(#paint2_linear_106_59)"
     id="path6"
     style="fill-opacity:1;fill:url(#linearGradient2110)" />
  <path
     d="M47.8522 17.8459C46.6722 17.6578 45.5209 18.3554 44.4429 19.7768C43.4119 21.1366 42.5806 23.0534 42.1453 25.2846C41.7104 27.5158 41.767 29.574 42.2219 31.1708C42.6974 32.8399 43.5144 33.8513 44.6942 34.0398H44.6949C45.8749 34.2277 47.0255 33.5298 48.1036 32.1083C49.1346 30.7486 49.9659 28.8323 50.4011 26.6011H50.4018C50.8367 24.3698 50.7791 22.3115 50.3246 20.7149C49.8491 19.0457 49.0323 18.0341 47.8523 17.8459H47.8522ZM47.5308 19.4953C47.5525 19.4988 48.1469 19.7799 48.5322 21.1326H48.5316C48.8968 22.4159 48.9734 24.2824 48.5781 26.3103C46.2933 34.6687 42.6911 32.4167 43.969 25.5754C44.3646 23.5473 45.1414 21.8169 45.9699 20.7241C46.8436 19.5722 47.5083 19.4917 47.5308 19.4953H47.5308Z"
     fill="url(#paint3_linear_106_59)"
     id="path8"
     style="fill-opacity:1;fill:url(#linearGradient2112)" />
  <path
     d="M25.6797 20.9987L25.0463 21.4879C23.3948 22.7641 21.7971 24.0946 20.2483 25.4675L20.2432 25.4715L20.2388 25.4756C16.4073 28.9677 12.4638 32.705 10.1338 37.4078C8.60575 40.306 9.14254 43.738 11.044 46.3205C11.978 47.6783 13.3693 48.8882 15.0255 49.6308C16.6873 50.3759 18.6622 50.6349 20.5564 49.9568L20.5609 49.9556L20.5653 49.9538C23.1553 49.0002 24.6051 46.9722 25.688 44.9612C25.8851 45.3305 26.0489 45.6872 26.2818 46.0568C26.9723 47.2074 27.9441 48.3613 29.2 49.2062C30.4587 50.053 32.0507 50.5826 33.7881 50.3375L33.8009 50.3351L33.8137 50.3334C37.9071 49.6494 40.7074 46.3682 41.7773 43.0516C42.8054 40.2229 41.292 37.5058 39.8172 35.4323C38.3885 33.4237 36.7941 31.5341 35.0958 29.7313C32.3469 26.8134 29.3259 24.1212 26.2844 21.5162L25.6797 20.9987ZM26.714 34.0323C28.9298 34.7922 36.8164 34.5282 38.1918 36.4619C39.578 38.4109 40.7678 40.4933 40.0149 42.5423L40.0098 42.5573L40.0047 42.5729C39.0927 45.411 36.6619 48.1475 33.4884 48.6835C32.3145 48.8452 31.2718 48.5127 30.3054 47.8626C29.3351 47.2098 28.4906 46.2309 27.9039 45.2515L27.8988 45.2434L27.8937 45.2353C27.3927 44.4418 26.9764 43.5587 26.4987 42.6537L25.6287 41.0043L24.816 42.6779C23.6462 45.0866 21.3088 46.2842 18.8371 47.1977C13.5273 48.1705 9.97407 42.3943 11.8076 38.1226L11.8127 38.1128L11.8178 38.1036C13.9762 33.7406 17.7379 30.133 21.5521 26.6565L21.5534 26.6553C22.8708 25.4879 21.2721 25.0101 21.5521 26.6565C22.5516 32.3398 23.5897 32.7835 26.714 34.0323Z"
     fill="url(#paint4_linear_106_59)"
     id="path10"
     style="fill-opacity:1;fill:url(#linearGradient2114)" />
  <defs
     id="defs37">
    <linearGradient
       inkscape:collect="always"
       id="linearGradient2104">
      <stop
         style="stop-color:#f9f9f9;stop-opacity:1;"
         offset="0"
         id="stop2100" />
      <stop
         style="stop-color:#f9f9f9;stop-opacity:0;"
         offset="1"
         id="stop2102" />
    </linearGradient>
    <linearGradient
       id="paint0_linear_106_59"
       x1="29.7319"
       y1="11.0992"
       x2="43.2543"
       y2="10.7969"
       gradientUnits="userSpaceOnUse">
      <stop
         offset="0.5"
         stop-color="#4600FF"
         id="stop12" />
      <stop
         offset="1"
         stop-color="#9600F0"
         id="stop14" />
    </linearGradient>
    <linearGradient
       id="paint1_linear_106_59"
       x1="11.4432"
       y1="11.0992"
       x2="24.1383"
       y2="10.3438"
       gradientUnits="userSpaceOnUse">
      <stop
         offset="0.5"
         stop-color="#4600FF"
         id="stop17" />
      <stop
         offset="1"
         stop-color="#9600F0"
         id="stop19" />
    </linearGradient>
    <linearGradient
       id="paint2_linear_106_59"
       x1="0.698753"
       y1="25.9429"
       x2="21.6788"
       y2="23.8304"
       gradientUnits="userSpaceOnUse">
      <stop
         offset="0.5"
         stop-color="#4600FF"
         id="stop22" />
      <stop
         offset="1"
         stop-color="#9600F0"
         id="stop24" />
    </linearGradient>
    <linearGradient
       id="paint3_linear_106_59"
       x1="41.8481"
       y1="25.9428"
       x2="50.6985"
       y2="25.9428"
       gradientUnits="userSpaceOnUse">
      <stop
         offset="0.5"
         stop-color="#4600FF"
         id="stop27" />
      <stop
         offset="1"
         stop-color="#9600F0"
         id="stop29" />
    </linearGradient>
    <linearGradient
       id="paint4_linear_106_59"
       x1="24.8866"
       y1="38.4167"
       x2="39.4566"
       y2="31.8246"
       gradientUnits="userSpaceOnUse">
      <stop
         offset="0.5"
         stop-color="#4600FF"
         id="stop32" />
      <stop
         offset="1"
         stop-color="#9600F0"
         id="stop34" />
    </linearGradient>
    <linearGradient
       inkscape:collect="always"
       xlink:href="#linearGradient2104"
       id="linearGradient2106"
       x1="62.066044"
       y1="-16.06176"
       x2="89.391762"
       y2="-33.588615"
       gradientUnits="userSpaceOnUse" />
    <linearGradient
       inkscape:collect="always"
       xlink:href="#linearGradient2104"
       id="linearGradient2108"
       x1="11.442963"
       y1="11.099195"
       x2="89.391762"
       y2="-33.588615"
       gradientUnits="userSpaceOnUse" />
    <linearGradient
       inkscape:collect="always"
       xlink:href="#linearGradient2104"
       id="linearGradient2110"
       x1="0.6986088"
       y1="25.942802"
       x2="62.066044"
       y2="-16.06176"
       gradientUnits="userSpaceOnUse" />
    <linearGradient
       inkscape:collect="always"
       xlink:href="#linearGradient2104"
       id="linearGradient2112"
       x1="41.848061"
       y1="25.942816"
       x2="89.391762"
       y2="-33.588615"
       gradientUnits="userSpaceOnUse" />
    <linearGradient
       inkscape:collect="always"
       xlink:href="#linearGradient2104"
       id="linearGradient2114"
       x1="9.2463939"
       y1="35.698155"
       x2="89.391762"
       y2="-33.588615"
       gradientUnits="userSpaceOnUse" />
  </defs>
</svg>
