<svg width="151" height="51" viewBox="0 0 151 51" fill="none" xmlns="http://www.w3.org/2000/svg">
<path d="M32.6849 0.223992C31.2587 0.0994222 29.8998 1.14352 28.776 3.06586C27.684 4.9331 26.8969 7.52125 26.6386 10.4694C26.3803 13.4175 26.7051 16.1026 27.4557 18.1308C28.2283 20.2187 29.3845 21.4826 30.8105 21.6072C32.2367 21.7318 33.5959 20.6876 34.72 18.7654C35.8118 16.8981 36.5983 14.3099 36.8568 11.3619C37.1152 8.41365 36.79 5.72851 36.0397 3.70046C35.267 1.61257 34.1111 0.348565 32.6849 0.223992V0.223992ZM32.5387 1.89242C32.9764 1.93065 33.8089 2.50458 34.4663 4.28084C35.1018 5.99854 35.4255 8.4813 35.1857 11.2159C34.3343 22.1103 27.6076 20.3526 28.3097 10.6153C28.5493 7.88067 29.2998 5.49113 30.2246 3.90988C31.1805 2.27468 32.1011 1.8542 32.5387 1.89242V1.89242Z" fill="white"/>
<path d="M14.2438 0.223992C12.8177 0.348568 11.6611 1.61252 10.8884 3.70046C10.1379 5.72863 9.81305 8.41372 10.0714 11.3619C10.3297 14.31 11.1169 16.8981 12.2087 18.7654C13.3328 20.6876 14.6909 21.7318 16.1171 21.6072C17.5432 21.4826 18.6999 20.2187 19.4725 18.1308C20.223 16.1026 20.5479 13.4175 20.2895 10.4694C20.0312 7.52124 19.244 4.93307 18.1522 3.06586C17.0281 1.1436 15.67 0.0994164 14.2438 0.223992ZM18.6185 10.6153C18.8581 13.35 18.5347 15.8328 17.8991 17.5504C17.2418 19.3266 16.4085 19.9006 15.9709 19.9388C15.5334 19.977 14.613 19.5566 13.6567 17.9213C12.7321 16.3401 11.9821 13.9506 11.7424 11.2159C10.6868 0.339462 17.6165 0.904483 18.6185 10.6153Z" fill="white"/>
<path d="M2.82957 17.6623C1.76052 17.8505 1.01999 18.8621 0.589368 20.5313C0.177438 22.1281 0.125978 24.1863 0.52003 26.4175C0.914087 28.6489 1.6678 30.5651 2.60191 31.9247C3.57837 33.3462 4.62026 34.0442 5.6892 33.8562H5.68979C6.75855 33.6678 7.49877 32.6564 7.92942 30.9873C8.34136 29.3905 8.39282 27.3323 7.99876 25.101C7.6047 22.8697 6.85155 20.9531 5.91745 19.5933C4.94098 18.1717 3.89859 17.4741 2.82959 17.6623H2.82957ZM6.34733 25.3918C6.70549 27.4198 6.6362 29.2864 6.30515 30.5696C5.95635 31.9215 5.41908 32.2031 5.39856 32.2069C5.37868 32.2103 4.77589 32.1299 3.98463 30.978V30.9774C3.23404 29.8849 2.53016 28.1548 2.17201 26.1268C0.529312 18.5646 5.07114 18.7547 6.34733 25.3918V25.3918Z" fill="white"/>
<path d="M42.966 17.6623C41.8971 17.4742 40.8541 18.1718 39.8776 19.5932C38.9436 20.953 38.1905 22.8698 37.7963 25.101C37.4023 27.3322 37.4536 29.3904 37.8656 30.9872C38.2964 32.6563 39.0365 33.6677 40.1052 33.8562H40.1058C41.1748 34.0442 42.2171 33.3462 43.1937 31.9247C44.1277 30.565 44.8807 28.6487 45.275 26.4175H45.2756C45.6696 24.1862 45.6174 22.1279 45.2057 20.5313C44.7749 18.8621 44.035 17.8505 42.9661 17.6623H42.966ZM42.6748 19.3117C42.6945 19.3152 43.2329 19.5963 43.582 20.949H43.5814C43.9123 22.2323 43.9816 24.0988 43.6236 26.1268C41.5538 34.4851 38.2907 32.2331 39.4483 25.3918C39.8066 23.3637 40.5103 21.6333 41.2609 20.5405C42.0523 19.3886 42.6545 19.3081 42.6748 19.3117H42.6748Z" fill="white"/>
<path d="M22.8805 20.8151L22.3067 21.3043C20.8107 22.5805 19.3634 23.911 17.9604 25.2839L17.9557 25.2879L17.9517 25.292C14.4809 28.7841 10.9086 32.5215 8.79787 37.2242C7.41364 40.1224 7.8999 43.5544 9.62242 46.1369C10.4684 47.4947 11.7288 48.7046 13.2292 49.4473C14.7346 50.1923 16.5235 50.4513 18.2394 49.7732L18.2435 49.772L18.2475 49.7702C20.5938 48.8166 21.9071 46.7886 22.888 44.7777C23.0666 45.147 23.2149 45.5036 23.4259 45.8732C24.0514 47.0238 24.9318 48.1777 26.0695 49.0226C27.2097 49.8694 28.6518 50.399 30.2257 50.1539L30.2373 50.1515L30.2488 50.1498C33.957 49.4658 36.4937 46.1846 37.4629 42.868C38.3943 40.0393 37.0233 37.3222 35.6873 35.2487C34.3931 33.2401 32.9488 31.3505 31.4103 29.5477C28.9201 26.6299 26.1835 23.9376 23.4283 21.3326L22.8805 20.8151ZM23.8174 33.8487C25.8247 34.6086 32.969 34.3446 34.2149 36.2783C35.4706 38.2273 36.5485 40.3097 35.8664 42.3587L35.8618 42.3737L35.8572 42.3893C35.031 45.2274 32.829 47.964 29.9542 48.5C28.8908 48.6616 27.9463 48.3291 27.0708 47.679C26.1918 47.0262 25.4268 46.0473 24.8954 45.0679L24.8907 45.0598L24.8861 45.0518C24.4322 44.2582 24.0552 43.3751 23.6224 42.4701L22.8343 40.8207L22.0981 42.4943C21.0384 44.903 18.921 46.1006 16.682 47.0141C11.872 47.9869 8.65317 42.2107 10.3141 37.939L10.3187 37.9292L10.3233 37.92C12.2786 33.557 15.6862 29.9494 19.1414 26.4729L19.1426 26.4718C20.3359 25.3043 18.8877 24.8265 19.1414 26.4729C20.0468 32.1562 20.9872 32.5999 23.8174 33.8487Z" fill="white"/>
<path d="M61.1231 18.8076C62.9376 18.8076 64.2591 19.2015 65.0874 19.9891C65.9289 20.7637 66.3497 21.8336 66.3497 23.1989C66.3497 24.0129 66.1788 24.7808 65.8369 25.5029C65.495 26.2118 64.9231 26.7828 64.121 27.2161C63.3321 27.6493 62.2539 27.8659 60.8865 27.8659H59.6045V32.8677H56.6263V18.8076H61.1231ZM60.9654 21.2494H59.6045V25.4241H60.5906C61.4321 25.4241 62.0961 25.26 62.5826 24.9318C63.0823 24.5905 63.3321 24.0457 63.3321 23.2974C63.3321 21.9321 62.5432 21.2494 60.9654 21.2494V21.2494Z" fill="white"/>
<path d="M73.2132 21.9189C74.699 21.9189 75.8758 22.3456 76.7436 23.1989C77.6114 24.0391 78.0453 25.2403 78.0453 26.8025V28.2203H71.1029C71.1292 29.0474 71.3724 29.6972 71.8326 30.1698C72.306 30.6424 72.9568 30.8787 73.7852 30.8787C74.4821 30.8787 75.1132 30.8131 75.6786 30.6818C76.244 30.5374 76.8291 30.3208 77.4339 30.032V32.2965C76.908 32.5591 76.3492 32.7495 75.7575 32.8676C75.179 32.9989 74.4755 33.0645 73.6471 33.0645C72.569 33.0645 71.6157 32.8676 70.7873 32.4738C69.959 32.0668 69.3081 31.4564 68.8347 30.6424C68.3614 29.8285 68.1247 28.8045 68.1247 27.5705C68.1247 26.3102 68.3351 25.2665 68.7559 24.4394C69.1898 23.5993 69.788 22.9691 70.5506 22.549C71.3133 22.1289 72.2008 21.9189 73.2132 21.9189V21.9189ZM73.233 24.0062C72.6676 24.0062 72.1942 24.19 71.8129 24.5576C71.4448 24.9252 71.2278 25.4962 71.1621 26.2708H75.2841C75.271 25.6144 75.1001 25.0762 74.7714 24.6561C74.4426 24.2228 73.9298 24.0062 73.233 24.0062V24.0062Z" fill="white"/>
<path d="M84.9681 30.7212C85.2968 30.7212 85.6124 30.6884 85.9148 30.6228C86.2172 30.5571 86.5196 30.4784 86.822 30.3865V32.5723C86.5065 32.7036 86.112 32.8151 85.6387 32.907C85.1785 33.0121 84.6722 33.0646 84.12 33.0646C83.4757 33.0646 82.8972 32.9596 82.3844 32.7495C81.8847 32.5395 81.4837 32.1784 81.1813 31.6665C80.892 31.1413 80.7474 30.4193 80.7474 29.5003V24.3214H79.347V23.0808L80.9643 22.0962L81.8124 19.8316H83.6861V22.1159H86.7037V24.3214H83.6861V29.5003C83.6861 29.9073 83.8044 30.2158 84.0411 30.4259C84.2778 30.6228 84.5868 30.7212 84.9681 30.7212V30.7212Z" fill="white"/>
<path d="M100.766 32.8677H97.7879V26.8026H92.2064V32.8677H89.2282V18.8076H92.2064V24.3214H97.7879V18.8076H100.766V32.8677Z" fill="white"/>
<path d="M108.497 21.8992C109.944 21.8992 111.048 22.2143 111.811 22.8444C112.587 23.4615 112.975 24.4132 112.975 25.6998V32.8676H110.923L110.351 31.4104H110.272C109.812 31.9881 109.326 32.4082 108.813 32.6707C108.3 32.9333 107.597 33.0646 106.703 33.0646C105.743 33.0646 104.947 32.7889 104.316 32.2375C103.685 31.673 103.369 30.8131 103.369 29.6578C103.369 28.5157 103.771 27.6755 104.573 27.1373C105.375 26.5859 106.578 26.284 108.182 26.2315L110.056 26.1724V25.6998C110.056 25.1353 109.904 24.7217 109.602 24.4592C109.313 24.1966 108.905 24.0653 108.379 24.0653C107.853 24.0653 107.34 24.1441 106.841 24.3017C106.341 24.4461 105.841 24.6298 105.342 24.853L104.375 22.8641C104.954 22.5622 105.592 22.3259 106.288 22.1552C106.998 21.9846 107.735 21.8992 108.497 21.8992V21.8992ZM110.056 27.8856L108.912 27.925C107.965 27.9512 107.307 28.1219 106.939 28.437C106.571 28.752 106.387 29.1656 106.387 29.6776C106.387 30.1239 106.519 30.4455 106.782 30.6425C107.045 30.8262 107.386 30.9181 107.807 30.9181C108.438 30.9181 108.971 30.7343 109.405 30.3668C109.839 29.9861 110.056 29.4544 110.056 28.7717V27.8856Z" fill="white"/>
<path d="M121.988 21.9189C123.198 21.9189 124.177 22.3915 124.927 23.3367C125.676 24.2688 126.051 25.6472 126.051 27.472C126.051 29.2968 125.663 30.6884 124.887 31.6467C124.111 32.5919 123.119 33.0645 121.909 33.0645C121.133 33.0645 120.515 32.9267 120.055 32.651C119.595 32.3622 119.22 32.0405 118.931 31.6861H118.773C118.878 32.2375 118.931 32.7626 118.931 33.2614V37.5937H115.992V22.1158H118.379L118.793 23.5139H118.931C119.22 23.0807 119.608 22.7066 120.094 22.3915C120.581 22.0764 121.212 21.9189 121.988 21.9189V21.9189ZM121.041 24.2622C120.279 24.2622 119.739 24.4985 119.424 24.9711C119.121 25.4438 118.957 26.1658 118.931 27.1372V27.4523C118.931 28.4894 119.082 29.2902 119.384 29.8547C119.7 30.4061 120.265 30.6818 121.081 30.6818C121.751 30.6818 122.244 30.4061 122.56 29.8547C122.889 29.2902 123.053 28.4829 123.053 27.4326C123.053 25.319 122.382 24.2622 121.041 24.2622Z" fill="white"/>
<path d="M134.472 21.9189C135.682 21.9189 136.662 22.3915 137.411 23.3367C138.161 24.2688 138.535 25.6472 138.535 27.472C138.535 29.2968 138.147 30.6884 137.372 31.6467C136.596 32.5919 135.603 33.0645 134.394 33.0645C133.618 33.0645 133 32.9267 132.54 32.651C132.079 32.3622 131.705 32.0405 131.415 31.6861H131.258C131.363 32.2375 131.415 32.7626 131.415 33.2614V37.5937H128.477V22.1158H130.863L131.277 23.5139H131.415C131.705 23.0807 132.093 22.7066 132.579 22.3915C133.066 22.0764 133.697 21.9189 134.472 21.9189V21.9189ZM133.526 24.2622C132.763 24.2622 132.224 24.4985 131.908 24.9711C131.606 25.4438 131.442 26.1658 131.415 27.1372V27.4523C131.415 28.4894 131.567 29.2902 131.869 29.8547C132.185 30.4061 132.75 30.6818 133.565 30.6818C134.236 30.6818 134.729 30.4061 135.044 29.8547C135.373 29.2902 135.537 28.4829 135.537 27.4326C135.537 25.319 134.867 24.2622 133.526 24.2622Z" fill="white"/>
<path d="M139.028 22.1158H142.243L144.275 28.1613C144.38 28.4501 144.459 28.752 144.511 29.0671C144.564 29.369 144.603 29.6907 144.63 30.032H144.689C144.728 29.6907 144.781 29.369 144.847 29.0671C144.926 28.752 145.011 28.4501 145.103 28.1613L147.095 22.1158H150.251L145.695 34.2461C145.287 35.362 144.689 36.1956 143.9 36.7469C143.124 37.3114 142.224 37.5937 141.198 37.5937C140.869 37.5937 140.58 37.574 140.33 37.5346C140.093 37.5084 139.883 37.4756 139.699 37.4362V35.1125C139.844 35.1388 140.015 35.165 140.212 35.1913C140.422 35.2175 140.639 35.2307 140.863 35.2307C141.481 35.2307 141.967 35.0403 142.322 34.6596C142.69 34.292 142.96 33.8457 143.131 33.3206L143.308 32.7889L139.028 22.1158Z" fill="white"/>
</svg>
