<svg width="151" height="51" viewBox="0 0 151 51" fill="none" xmlns="http://www.w3.org/2000/svg">
<path d="M33.2514 0.875939C31.8252 0.751369 30.4662 1.79547 29.3424 3.71781C28.2504 5.58505 27.4634 8.17319 27.2051 11.1213C26.9467 14.0694 27.2715 16.7546 28.0221 18.7827C28.7947 20.8707 29.9509 22.1346 31.3769 22.2592C32.8031 22.3838 34.1623 21.3396 35.2864 19.4173C36.3783 17.5501 37.1648 14.9619 37.4232 12.0138C37.6817 9.0656 37.3564 6.38046 36.6062 4.35241C35.8334 2.26451 34.6775 1.00051 33.2514 0.875939V0.875939ZM33.1052 2.54437C33.5428 2.5826 34.3754 3.15653 35.0328 4.93278C35.6682 6.65049 35.9919 9.13325 35.7522 11.8678C34.9007 22.7622 28.174 21.0045 28.8761 11.2673C29.1157 8.53261 29.8662 6.14307 30.791 4.56183C31.747 2.92663 32.6675 2.50614 33.1052 2.54437V2.54437Z" fill="url(#paint0_linear_106_43)"/>
<path d="M14.8103 0.875939C13.3841 1.00052 12.2275 2.26447 11.4549 4.35241C10.7044 6.38057 10.3795 9.06567 10.6378 12.0138C10.8962 14.9619 11.6833 17.5501 12.7752 19.4173C13.8992 21.3396 15.2574 22.3838 16.6836 22.2592C18.1097 22.1346 19.2663 20.8706 20.039 18.7827C20.7895 16.7546 21.1143 14.0694 20.856 11.1213C20.5977 8.17319 19.8105 5.58501 18.7186 3.71781C17.5946 1.79555 16.2364 0.751363 14.8103 0.875939ZM19.1849 11.2673C19.4246 14.0019 19.1012 16.4848 18.4656 18.2023C17.8083 19.9785 16.9749 20.5525 16.5374 20.5907C16.0999 20.629 15.1794 20.2085 14.2232 18.5733C13.2986 16.992 12.5485 14.6025 12.3089 11.8678C11.2532 0.991409 18.183 1.55643 19.1849 11.2673Z" fill="url(#paint1_linear_106_43)"/>
<path d="M3.39601 18.3142C2.32696 18.5024 1.58643 19.514 1.1558 21.1832C0.743875 22.78 0.692415 24.8382 1.08647 27.0695C1.48052 29.3008 2.23424 31.217 3.16835 32.5767C4.14481 33.9981 5.18669 34.6961 6.25564 34.5082H6.25623C7.32499 34.3197 8.06521 33.3083 8.49585 31.6392C8.90779 30.0424 8.95925 27.9842 8.5652 25.7529C8.17114 23.5216 7.41799 21.605 6.48389 20.2452C5.50742 18.8237 4.46502 18.126 3.39602 18.3142H3.39601ZM6.91377 26.0437C7.27192 28.0717 7.20263 29.9383 6.87159 31.2215C6.52279 32.5734 5.98552 32.855 5.96499 32.8588C5.94511 32.8622 5.34233 32.7818 4.55107 31.6299V31.6293C3.80047 30.5368 3.0966 28.8067 2.73845 26.7787C1.09575 19.2166 5.63757 19.4067 6.91377 26.0437V26.0437Z" fill="url(#paint2_linear_106_43)"/>
<path d="M43.5325 18.3143C42.4635 18.1261 41.4206 18.8238 40.444 20.2452C39.5101 21.605 38.757 23.5217 38.3627 25.7529C37.9688 27.9842 38.02 30.0423 38.4321 31.6392C38.8628 33.3083 39.6029 34.3197 40.6717 34.5082H40.6723C41.7412 34.6961 42.7835 33.9981 43.7601 32.5767C44.6942 31.217 45.4472 29.3007 45.8414 27.0695H45.842C46.236 24.8381 46.1838 22.7799 45.7721 21.1832C45.3414 19.5141 44.6015 18.5025 43.5325 18.3143H43.5325ZM43.2412 19.9636C43.261 19.9671 43.7993 20.2483 44.1484 21.6009H44.1478C44.4787 22.8843 44.5481 24.7507 44.19 26.7787C42.1203 35.1371 38.8571 32.885 40.0147 26.0437C40.373 24.0157 41.0767 22.2852 41.8273 21.1925C42.6187 20.0405 43.2209 19.9601 43.2412 19.9636H43.2412Z" fill="url(#paint3_linear_106_43)"/>
<path d="M23.4469 21.4671L22.8731 21.9563C21.3771 23.2325 19.9298 24.563 18.5268 25.9358L18.5222 25.9399L18.5181 25.9439C15.0473 29.4361 11.475 33.1734 9.36431 37.8762C7.98008 40.7743 8.46634 44.2064 10.1889 46.7889C11.0349 48.1467 12.2952 49.3566 13.7956 50.0992C15.301 50.8443 17.09 51.1032 18.8059 50.4251L18.8099 50.424L18.814 50.4222C21.1602 49.4685 22.4735 47.4405 23.4544 45.4296C23.633 45.7989 23.7813 46.1556 23.9924 46.5252C24.6179 47.6758 25.4982 48.8296 26.6359 49.6745C27.7761 50.5213 29.2183 51.0509 30.7922 50.8058L30.8037 50.8035L30.8153 50.8017C34.5235 50.1178 37.0601 46.8366 38.0294 43.5199C38.9607 40.6913 37.5897 37.9742 36.2537 35.9007C34.9595 33.892 33.5152 32.0025 31.9767 30.1996C29.4866 27.2818 26.7499 24.5895 23.9947 21.9846L23.4469 21.4671ZM24.3838 34.5006C26.3911 35.2606 33.5354 34.9965 34.7813 36.9302C36.0371 38.8792 37.1149 40.9617 36.4328 43.0107L36.4282 43.0257L36.4236 43.0413C35.5974 45.8794 33.3954 48.6159 30.5206 49.1519C29.4572 49.3136 28.5127 48.9811 27.6373 48.331C26.7583 47.6782 25.9932 46.6992 25.4618 45.7199L25.4572 45.7118L25.4525 45.7037C24.9987 44.9102 24.6216 44.0271 24.1888 43.122L23.4007 41.4726L22.6646 43.1462C21.6049 45.5549 19.4875 46.7525 17.2484 47.6661C12.4384 48.6388 9.2196 42.8626 10.8805 38.591L10.8851 38.5811L10.8898 38.5719C12.845 34.209 16.2527 30.6014 19.7079 27.1249L19.709 27.1237C20.9024 25.9563 19.4542 25.4784 19.7079 27.1249C20.6133 32.8082 21.5536 33.2519 24.3838 34.5006Z" fill="url(#paint4_linear_106_43)"/>
<path d="M61.6896 19.4595C63.5041 19.4595 64.8255 19.8534 65.6539 20.641C66.4954 21.4156 66.9161 22.4855 66.9161 23.8508C66.9161 24.6648 66.7452 25.4328 66.4033 26.1548C66.0615 26.8637 65.4895 27.4348 64.6875 27.868C63.8985 28.3012 62.8204 28.5178 61.4529 28.5178H60.1709V33.5196H57.1927V19.4595H61.6896ZM61.5318 21.9013H60.1709V26.076H61.1571C61.9986 26.076 62.6626 25.9119 63.1491 25.5837C63.6487 25.2424 63.8985 24.6976 63.8985 23.9493C63.8985 22.584 63.1096 21.9013 61.5318 21.9013V21.9013Z" fill="url(#paint5_linear_106_43)"/>
<path d="M73.7797 22.5709C75.2655 22.5709 76.4423 22.9976 77.3101 23.8509C78.1779 24.6911 78.6118 25.8923 78.6118 27.4545V28.8723H71.6693C71.6956 29.6994 71.9389 30.3492 72.3991 30.8218C72.8724 31.2944 73.5233 31.5307 74.3516 31.5307C75.0485 31.5307 75.6796 31.4651 76.245 31.3338C76.8104 31.1894 77.3955 30.9728 78.0004 30.684V32.9485C77.4744 33.2111 76.9156 33.4015 76.3239 33.5196C75.7454 33.6509 75.0419 33.7165 74.2136 33.7165C73.1354 33.7165 72.1821 33.5196 71.3538 33.1258C70.5254 32.7188 69.8745 32.1084 69.4012 31.2944C68.9278 30.4805 68.6912 29.4565 68.6912 28.2225C68.6912 26.9622 68.9015 25.9185 69.3223 25.0915C69.7562 24.2513 70.3545 23.6211 71.1171 23.201C71.8797 22.7809 72.7672 22.5709 73.7797 22.5709V22.5709ZM73.7994 24.6582C73.234 24.6582 72.7607 24.842 72.3794 25.2096C72.0112 25.5772 71.7942 26.1483 71.7285 26.9228H75.8506C75.8374 26.2664 75.6665 25.7282 75.3378 25.3081C75.0091 24.8748 74.4963 24.6582 73.7994 24.6582V24.6582Z" fill="url(#paint6_linear_106_43)"/>
<path d="M85.5346 31.3732C85.8633 31.3732 86.1789 31.3403 86.4813 31.2747C86.7837 31.209 87.0861 31.1303 87.3886 31.0384V33.2242C87.073 33.3555 86.6785 33.4671 86.2052 33.559C85.745 33.664 85.2388 33.7165 84.6865 33.7165C84.0422 33.7165 83.4637 33.6115 82.9509 33.4014C82.4513 33.1914 82.0502 32.8304 81.7478 32.3184C81.4585 31.7933 81.3139 31.0712 81.3139 30.1523V24.9733H79.9136V23.7327L81.5309 22.7481L82.3789 20.4835H84.2526V22.7678H87.2702V24.9733H84.2526V30.1523C84.2526 30.5592 84.371 30.8677 84.6076 31.0778C84.8443 31.2747 85.1533 31.3732 85.5346 31.3732V31.3732Z" fill="url(#paint7_linear_106_43)"/>
<path d="M101.333 33.5196H98.3544V27.4545H92.7728V33.5196H89.7947V19.4595H92.7728V24.9733H98.3544V19.4595H101.333V33.5196Z" fill="url(#paint8_linear_106_43)"/>
<path d="M109.064 22.5512C110.51 22.5512 111.615 22.8663 112.377 23.4964C113.153 24.1134 113.541 25.0652 113.541 26.3517V33.5196H111.49L110.918 32.0624H110.839C110.379 32.64 109.892 33.0601 109.379 33.3227C108.867 33.5852 108.163 33.7165 107.269 33.7165C106.309 33.7165 105.514 33.4408 104.883 32.8894C104.252 32.3249 103.936 31.4651 103.936 30.3098C103.936 29.1677 104.337 28.3275 105.139 27.7892C105.941 27.2379 107.144 26.9359 108.748 26.8834L110.622 26.8243V26.3517C110.622 25.7872 110.471 25.3737 110.168 25.1111C109.879 24.8486 109.472 24.7173 108.946 24.7173C108.42 24.7173 107.907 24.7961 107.407 24.9536C106.908 25.098 106.408 25.2818 105.908 25.505L104.942 23.5161C105.52 23.2141 106.158 22.9778 106.855 22.8072C107.565 22.6365 108.301 22.5512 109.064 22.5512V22.5512ZM110.622 28.5375L109.478 28.5769C108.531 28.6032 107.874 28.7738 107.506 29.0889C107.138 29.404 106.954 29.8175 106.954 30.3295C106.954 30.7758 107.085 31.0975 107.348 31.2944C107.611 31.4782 107.953 31.5701 108.374 31.5701C109.005 31.5701 109.537 31.3863 109.971 31.0187C110.405 30.638 110.622 30.1063 110.622 29.4237V28.5375Z" fill="url(#paint9_linear_106_43)"/>
<path d="M122.554 22.5709C123.764 22.5709 124.744 23.0435 125.493 23.9887C126.242 24.9208 126.617 26.2992 126.617 28.124C126.617 29.9488 126.229 31.3404 125.454 32.2987C124.678 33.2439 123.685 33.7165 122.475 33.7165C121.7 33.7165 121.082 33.5787 120.621 33.303C120.161 33.0142 119.787 32.6926 119.497 32.3381H119.339C119.445 32.8895 119.497 33.4146 119.497 33.9134V38.2457H116.559V22.7678H118.945L119.359 24.1659H119.497C119.787 23.7327 120.174 23.3586 120.661 23.0435C121.147 22.7284 121.779 22.5709 122.554 22.5709V22.5709ZM121.608 24.9142C120.845 24.9142 120.306 25.1505 119.99 25.6232C119.688 26.0958 119.524 26.8178 119.497 27.7893V28.1043C119.497 29.1414 119.648 29.9422 119.951 30.5067C120.266 31.0581 120.832 31.3338 121.647 31.3338C122.318 31.3338 122.811 31.0581 123.126 30.5067C123.455 29.9422 123.619 29.1349 123.619 28.0846C123.619 25.971 122.949 24.9142 121.608 24.9142Z" fill="url(#paint10_linear_106_43)"/>
<path d="M135.039 22.5709C136.249 22.5709 137.228 23.0435 137.978 23.9887C138.727 24.9208 139.102 26.2992 139.102 28.124C139.102 29.9488 138.714 31.3404 137.938 32.2987C137.162 33.2439 136.17 33.7165 134.96 33.7165C134.184 33.7165 133.566 33.5787 133.106 33.303C132.646 33.0142 132.271 32.6926 131.982 32.3381H131.824C131.929 32.8895 131.982 33.4146 131.982 33.9134V38.2457H129.043V22.7678H131.43L131.844 24.1659H131.982C132.271 23.7327 132.659 23.3586 133.146 23.0435C133.632 22.7284 134.263 22.5709 135.039 22.5709V22.5709ZM134.092 24.9142C133.33 24.9142 132.791 25.1505 132.475 25.6232C132.173 26.0958 132.008 26.8178 131.982 27.7893V28.1043C131.982 29.1414 132.133 29.9422 132.435 30.5067C132.751 31.0581 133.316 31.3338 134.132 31.3338C134.802 31.3338 135.295 31.0581 135.611 30.5067C135.94 29.9422 136.104 29.1349 136.104 28.0846C136.104 25.971 135.433 24.9142 134.092 24.9142Z" fill="url(#paint11_linear_106_43)"/>
<path d="M139.595 22.7678H142.81L144.841 28.8132C144.946 29.102 145.025 29.404 145.078 29.719C145.13 30.021 145.17 30.3426 145.196 30.6839H145.255C145.295 30.3426 145.347 30.021 145.413 29.719C145.492 29.404 145.578 29.102 145.67 28.8132L147.662 22.7678H150.817L146.261 34.898C145.854 36.0139 145.255 36.8475 144.466 37.3989C143.691 37.9634 142.79 38.2456 141.764 38.2456C141.436 38.2456 141.146 38.2259 140.897 38.1866C140.66 38.1603 140.45 38.1275 140.265 38.0881V35.7645C140.41 35.7907 140.581 35.817 140.778 35.8432C140.989 35.8695 141.206 35.8826 141.429 35.8826C142.047 35.8826 142.534 35.6923 142.889 35.3115C143.257 34.944 143.526 34.4976 143.697 33.9725L143.875 33.4408L139.595 22.7678Z" fill="url(#paint12_linear_106_43)"/>
<defs>
<linearGradient id="paint0_linear_106_43" x1="27.1177" y1="11.5675" x2="39.3684" y2="11.3194" gradientUnits="userSpaceOnUse">
<stop offset="0.5" stop-color="#4600FF"/>
<stop offset="1" stop-color="#9600F0"/>
</linearGradient>
<linearGradient id="paint1_linear_106_43" x1="10.5505" y1="11.5675" x2="22.058" y2="10.9473" gradientUnits="userSpaceOnUse">
<stop offset="0.5" stop-color="#4600FF"/>
<stop offset="1" stop-color="#9600F0"/>
</linearGradient>
<linearGradient id="paint2_linear_106_43" x1="0.817331" y1="26.4112" x2="19.8569" y2="24.6746" gradientUnits="userSpaceOnUse">
<stop offset="0.5" stop-color="#4600FF"/>
<stop offset="1" stop-color="#9600F0"/>
</linearGradient>
<linearGradient id="paint3_linear_106_43" x1="38.0935" y1="26.4112" x2="46.1109" y2="26.4112" gradientUnits="userSpaceOnUse">
<stop offset="0.5" stop-color="#4600FF"/>
<stop offset="1" stop-color="#9600F0"/>
</linearGradient>
<linearGradient id="paint4_linear_106_43" x1="22.7285" y1="38.885" x2="36.342" y2="33.3054" gradientUnits="userSpaceOnUse">
<stop offset="0.5" stop-color="#4600FF"/>
<stop offset="1" stop-color="#9600F0"/>
</linearGradient>
<linearGradient id="paint5_linear_106_43" x1="57.1927" y1="26.4895" x2="66.2276" y2="31.8192" gradientUnits="userSpaceOnUse">
<stop offset="0.5" stop-color="#4600FF"/>
<stop offset="1" stop-color="#9600F0"/>
</linearGradient>
<linearGradient id="paint6_linear_106_43" x1="68.6912" y1="28.1437" x2="77.9942" y2="32.9605" gradientUnits="userSpaceOnUse">
<stop offset="0.5" stop-color="#4600FF"/>
<stop offset="1" stop-color="#9600F0"/>
</linearGradient>
<linearGradient id="paint7_linear_106_43" x1="79.9136" y1="27.1" x2="88.1285" y2="30.2" gradientUnits="userSpaceOnUse">
<stop offset="0.5" stop-color="#4600FF"/>
<stop offset="1" stop-color="#9600F0"/>
</linearGradient>
<linearGradient id="paint8_linear_106_43" x1="89.7947" y1="26.4895" x2="101.323" y2="33.5357" gradientUnits="userSpaceOnUse">
<stop offset="0.5" stop-color="#4600FF"/>
<stop offset="1" stop-color="#9600F0"/>
</linearGradient>
<linearGradient id="paint9_linear_106_43" x1="103.936" y1="28.1338" x2="113.534" y2="33.5325" gradientUnits="userSpaceOnUse">
<stop offset="0.5" stop-color="#4600FF"/>
<stop offset="1" stop-color="#9600F0"/>
</linearGradient>
<linearGradient id="paint10_linear_106_43" x1="116.559" y1="30.4083" x2="126.117" y2="34.4998" gradientUnits="userSpaceOnUse">
<stop offset="0.5" stop-color="#4600FF"/>
<stop offset="1" stop-color="#9600F0"/>
</linearGradient>
<linearGradient id="paint11_linear_106_43" x1="129.043" y1="30.4083" x2="141.085" y2="33.8837" gradientUnits="userSpaceOnUse">
<stop offset="0.5" stop-color="#4600FF"/>
<stop offset="1" stop-color="#9600F0"/>
</linearGradient>
<linearGradient id="paint12_linear_106_43" x1="139.595" y1="30.5067" x2="152.608" y2="35.2188" gradientUnits="userSpaceOnUse">
<stop offset="0.5" stop-color="#4600FF"/>
<stop offset="1" stop-color="#9600F0"/>
</linearGradient>
</defs>
</svg>
